<?xml version="1.0" encoding="utf-8"?>
<!-- Generator: Adobe Illustrator 23.1.1, SVG Export Plug-In . SVG Version: 6.00 Build 0)  -->
<svg version="1.1" id="Layer_1" xmlns="http://www.w3.org/2000/svg" xmlns:xlink="http://www.w3.org/1999/xlink" x="0px" y="0px"
	 viewBox="0 0 200 38.4" style="enable-background:new 0 0 200 38.4;" xml:space="preserve">
<style type="text/css">
	.st0{fill:#FFFDFD;}
	.st1{font-family:'Comfortaa-Regular';}
	.st2{font-size:24.4076px;}
	.st3{letter-spacing:-1;}
	.st4{letter-spacing:1;}
	.st5{font-family:'Gotham-Light';}
	.st6{font-size:7.1787px;}
	.st7{letter-spacing:3;}
</style>
<g id="Group_2" transform="translate(-41.818 441.352)">
	<text transform="matrix(1 0 0 1 41.8036 -419.6333)" class="st0 st1 st2">P</text>
	<text transform="matrix(1 0 0 1 55.7645 -419.6333)" class="st0 st1 st2">A</text>
	<text transform="matrix(1 0 0 1 72.4344 -419.6333)" class="st0 st1 st2 st3">U</text>
	<text transform="matrix(1 0 0 1 91.2039 -419.6333)" class="st0 st1 st2">L</text>
	<text transform="matrix(1 0 0 1 107.6297 -419.6333)" class="st0 st1 st2">A </text>
	<text transform="matrix(1 0 0 1 131.9393 -419.6333)" class="st0 st1 st2">V</text>
	<text transform="matrix(1 0 0 1 148.9266 -419.6333)" class="st0 st1 st2">E</text>
	<text transform="matrix(1 0 0 1 165.5731 -419.6333)" class="st0 st1 st2 st4">R</text>
	<text transform="matrix(1 0 0 1 181.8768 -419.6333)" class="st0 st1 st2">A</text>
	<text transform="matrix(1 0 0 1 199.035 -419.6333)" class="st0 st1 st2">N</text>
	<text transform="matrix(1 0 0 1 218.1952 -419.6333)" class="st0 st1 st2">O</text>
	<text transform="matrix(1 0 0 1 42.9422 -404.5572)" class="st0 st5 st6 st7">ARQUITETURA DE INTERIORES</text>
</g>
</svg>
