<?xml version="1.0" encoding="utf-8"?>
<!-- Generator: Adobe Illustrator 23.1.1, SVG Export Plug-In . SVG Version: 6.00 Build 0)  -->
<svg version="1.1" id="Layer_1" xmlns="http://www.w3.org/2000/svg" xmlns:xlink="http://www.w3.org/1999/xlink" x="0px" y="0px"
	 viewBox="0 0 200 38.4" style="enable-background:new 0 0 200 38.4;" xml:space="preserve">
<style type="text/css">
	.st0{enable-background:new    ;}
	.st1{fill:#FFFDFD;}
</style>
<g id="Group_2" transform="translate(-41.818 441.352)">
	<g class="st0">
		<path class="st1" d="M46.5-419.9c-0.2-0.2-0.3-0.4-0.3-0.7v-17.2c0-0.3,0.1-0.5,0.3-0.7c0.2-0.2,0.4-0.3,0.7-0.3H52
			c1.2,0,2.2,0.3,3.2,0.8c0.9,0.5,1.7,1.3,2.2,2.2c0.5,0.9,0.8,2,0.8,3.2c0,1.2-0.3,2.2-0.8,3.2c-0.5,0.9-1.2,1.7-2.2,2.2
			c-0.9,0.5-2,0.8-3.2,0.8h-3.9v5.8c0,0.3-0.1,0.5-0.3,0.7c-0.2,0.2-0.4,0.3-0.7,0.3C46.9-419.6,46.6-419.7,46.5-419.9z M52-428.2
			c0.8,0,1.6-0.2,2.2-0.5s1.2-0.9,1.5-1.5c0.4-0.7,0.5-1.4,0.5-2.2c0-0.8-0.2-1.6-0.5-2.3c-0.4-0.7-0.9-1.2-1.5-1.5
			c-0.7-0.4-1.4-0.6-2.2-0.6h-3.9v8.7H52z"/>
	</g>
	<g class="st0">
		<path class="st1" d="M74.5-420.6c0,0.3-0.1,0.5-0.3,0.7c-0.2,0.2-0.4,0.3-0.7,0.3c-0.4,0-0.7-0.2-0.9-0.6l-1.6-4h-9.4l-1.6,4
			c-0.1,0.4-0.4,0.6-0.9,0.6c-0.3,0-0.5-0.1-0.7-0.3c-0.2-0.2-0.3-0.4-0.3-0.7c0-0.2,0-0.3,0.1-0.4l7.2-17c0.2-0.4,0.5-0.7,0.9-0.7
			c0.4,0,0.7,0.2,0.9,0.7l7.2,17.1C74.5-420.9,74.5-420.7,74.5-420.6z M62.3-425.8h8.1l-4.1-9.8L62.3-425.8z"/>
	</g>
	<g class="st0">
		<path class="st1" d="M80.5-420.1c-1.2-0.6-2.1-1.4-2.7-2.4c-0.6-1-1-2.2-1-3.5v-11.8c0-0.3,0.1-0.5,0.3-0.7
			c0.2-0.2,0.4-0.3,0.7-0.3c0.3,0,0.5,0.1,0.7,0.3c0.2,0.2,0.3,0.4,0.3,0.7v11.8c0,0.9,0.2,1.8,0.7,2.5s1.2,1.3,2,1.7
			c0.9,0.4,1.8,0.6,3,0.6c1.1,0,2.1-0.2,2.9-0.6c0.8-0.4,1.5-1,2-1.7c0.5-0.7,0.7-1.6,0.7-2.5v-11.8c0-0.3,0.1-0.5,0.3-0.7
			c0.2-0.2,0.4-0.3,0.7-0.3c0.3,0,0.5,0.1,0.7,0.3c0.2,0.2,0.3,0.4,0.3,0.7v11.8c0,1.3-0.3,2.4-1,3.5c-0.6,1-1.5,1.8-2.7,2.4
			s-2.4,0.9-3.9,0.9C82.9-419.2,81.6-419.5,80.5-420.1z"/>
	</g>
	<g class="st0">
		<path class="st1" d="M95.9-419.9c-0.2-0.2-0.3-0.4-0.3-0.7v-17.2c0-0.3,0.1-0.5,0.3-0.7c0.2-0.2,0.4-0.3,0.7-0.3
			c0.3,0,0.5,0.1,0.7,0.3c0.2,0.2,0.3,0.4,0.3,0.7v16.3h9.5c0.3,0,0.5,0.1,0.7,0.3c0.2,0.2,0.3,0.4,0.3,0.6c0,0.3-0.1,0.5-0.3,0.6
			c-0.2,0.2-0.4,0.3-0.7,0.3H96.5C96.3-419.6,96.1-419.7,95.9-419.9z"/>
	</g>
	<g class="st0">
		<path class="st1" d="M126.4-420.6c0,0.3-0.1,0.5-0.3,0.7c-0.2,0.2-0.4,0.3-0.7,0.3c-0.4,0-0.7-0.2-0.9-0.6l-1.6-4h-9.4l-1.6,4
			c-0.1,0.4-0.4,0.6-0.9,0.6c-0.3,0-0.5-0.1-0.7-0.3c-0.2-0.2-0.3-0.4-0.3-0.7c0-0.2,0-0.3,0.1-0.4l7.2-17c0.2-0.4,0.5-0.7,0.9-0.7
			c0.4,0,0.7,0.2,0.9,0.7l7.2,17.1C126.4-420.9,126.4-420.7,126.4-420.6z M114.2-425.8h8.1l-4.1-9.8L114.2-425.8z"/>
	</g>
	<g class="st0">
		<path class="st1" d="M150.7-438.5c0.2,0.2,0.2,0.4,0.2,0.6c0,0.2,0,0.3-0.1,0.5l-7.3,17.1c-0.2,0.4-0.5,0.6-0.9,0.6
			c-0.2,0-0.4,0-0.5-0.1c-0.1-0.1-0.3-0.2-0.4-0.5l-7.2-17c-0.1-0.2-0.1-0.5-0.1-0.6c0-0.3,0.1-0.5,0.3-0.6c0.2-0.2,0.4-0.2,0.7-0.2
			c0.4,0,0.7,0.2,0.9,0.6l6.5,15.5l6.4-15.4c0.1-0.2,0.2-0.4,0.4-0.5c0.1-0.1,0.3-0.1,0.6-0.1C150.3-438.7,150.5-438.6,150.7-438.5z
			"/>
	</g>
	<g class="st0">
		<path class="st1" d="M153.6-419.9c-0.2-0.2-0.3-0.4-0.3-0.7v-17.2c0-0.3,0.1-0.5,0.3-0.7c0.2-0.2,0.4-0.3,0.7-0.3h11.4
			c0.3,0,0.5,0.1,0.7,0.3c0.2,0.2,0.3,0.4,0.3,0.7c0,0.3-0.1,0.5-0.3,0.6c-0.2,0.2-0.4,0.3-0.7,0.3h-10.5v6.7h7.6
			c0.3,0,0.5,0.1,0.7,0.3s0.3,0.4,0.3,0.7c0,0.3-0.1,0.5-0.3,0.7c-0.2,0.2-0.4,0.3-0.7,0.3h-7.6v6.8h10.5c0.3,0,0.5,0.1,0.7,0.3
			c0.2,0.2,0.3,0.4,0.3,0.6c0,0.3-0.1,0.5-0.3,0.7c-0.2,0.2-0.4,0.3-0.7,0.3h-11.4C154-419.6,153.8-419.7,153.6-419.9z"/>
	</g>
	<g class="st0">
		<path class="st1" d="M182.1-420.4c0,0.2-0.1,0.4-0.3,0.6c-0.2,0.1-0.4,0.2-0.7,0.2c-0.2,0-0.4,0-0.5-0.1c-0.1-0.1-0.2-0.2-0.3-0.4
			l-4.4-7h-0.4h-3.6v6.5c0,0.3-0.1,0.5-0.3,0.7c-0.2,0.2-0.4,0.3-0.7,0.3c-0.3,0-0.5-0.1-0.7-0.3c-0.2-0.2-0.3-0.4-0.3-0.7v-17.2
			c0-0.3,0.1-0.5,0.3-0.7c0.2-0.2,0.4-0.3,0.7-0.3h4.6c1.2,0,2.2,0.2,3.2,0.7c0.9,0.5,1.7,1.2,2.2,2.1c0.5,0.9,0.8,1.9,0.8,3.1
			c0,1.3-0.3,2.4-1,3.3c-0.7,0.9-1.6,1.6-2.7,2l4,6.4C182-420.9,182.1-420.6,182.1-420.4z M175.5-428.9c0.8,0,1.5-0.2,2.2-0.5
			c0.7-0.3,1.2-0.8,1.5-1.4s0.5-1.3,0.5-2c0-0.8-0.2-1.5-0.5-2.1c-0.4-0.6-0.9-1.1-1.5-1.4c-0.7-0.3-1.4-0.5-2.2-0.5h-3.6v7.9H175.5
			z"/>
	</g>
	<g class="st0">
		<path class="st1" d="M200.7-420.6c0,0.3-0.1,0.5-0.3,0.7c-0.2,0.2-0.4,0.3-0.7,0.3c-0.4,0-0.7-0.2-0.9-0.6l-1.6-4h-9.4l-1.6,4
			c-0.1,0.4-0.4,0.6-0.9,0.6c-0.3,0-0.5-0.1-0.7-0.3c-0.2-0.2-0.3-0.4-0.3-0.7c0-0.2,0-0.3,0.1-0.4l7.2-17c0.2-0.4,0.5-0.7,0.9-0.7
			c0.4,0,0.7,0.2,0.9,0.7l7.2,17.1C200.6-420.9,200.7-420.7,200.7-420.6z M188.4-425.8h8.1l-4.1-9.8L188.4-425.8z"/>
	</g>
	<g class="st0">
		<path class="st1" d="M203.7-419.9c-0.2-0.2-0.3-0.4-0.3-0.7v-17.2c0-0.3,0.1-0.5,0.3-0.7c0.2-0.2,0.4-0.3,0.7-0.3
			c0.3,0,0.5,0.1,0.7,0.3l11.7,15.3v-14.7c0-0.3,0.1-0.5,0.3-0.7c0.2-0.2,0.4-0.3,0.7-0.3c0.3,0,0.5,0.1,0.7,0.3
			c0.2,0.2,0.3,0.4,0.3,0.7v17.2c0,0.3-0.1,0.5-0.3,0.7c-0.2,0.2-0.4,0.3-0.7,0.3c-0.3,0-0.6-0.1-0.7-0.3l-11.7-15.3v14.7
			c0,0.3-0.1,0.5-0.3,0.7c-0.2,0.2-0.4,0.3-0.7,0.3C204.1-419.6,203.9-419.7,203.7-419.9z"/>
	</g>
	<g class="st0">
		<path class="st1" d="M226.4-420.7c-1.5-0.8-2.6-2-3.5-3.5c-0.8-1.5-1.3-3.2-1.3-5c0-1.9,0.4-3.5,1.3-5s2-2.6,3.5-3.5
			c1.5-0.8,3.1-1.3,5-1.3c1.8,0,3.5,0.4,5,1.3s2.7,2,3.5,3.5s1.3,3.1,1.3,5c0,1.9-0.4,3.5-1.3,5c-0.8,1.5-2,2.7-3.5,3.5
			c-1.5,0.8-3.2,1.3-5,1.3C229.5-419.4,227.9-419.8,226.4-420.7z M235.4-422.2c1.2-0.7,2.1-1.7,2.8-2.9c0.7-1.2,1-2.6,1-4.1
			c0-1.5-0.3-2.8-1-4c-0.7-1.2-1.6-2.2-2.8-2.9c-1.2-0.7-2.5-1-4-1c-1.5,0-2.8,0.3-4,1c-1.2,0.7-2.1,1.7-2.8,2.9c-0.7,1.2-1,2.6-1,4
			c0,1.5,0.3,2.9,1,4.1s1.6,2.2,2.8,2.9c1.2,0.7,2.5,1,4,1C232.9-421.2,234.2-421.5,235.4-422.2z"/>
	</g>
	<g class="st0">
		<path class="st1" d="M47.5-409.6h0.4l2.3,5.1h-0.4l-0.6-1.4h-3l-0.6,1.4h-0.4L47.5-409.6z M49-406.3l-1.3-2.9l-1.3,2.9H49z"/>
		<path class="st1" d="M54.3-409.6h2.1c0.6,0,1.1,0.2,1.4,0.5c0.2,0.2,0.4,0.6,0.4,0.9v0c0,0.8-0.6,1.3-1.5,1.4l1.7,2.1h-0.5
			l-1.6-2.1h-1.6v2.1h-0.4V-409.6z M56.4-407c0.8,0,1.5-0.4,1.5-1.1v0c0-0.7-0.5-1.1-1.4-1.1h-1.7v2.3H56.4z"/>
		<path class="st1" d="M67.1-404.4l-0.7-0.6c-0.4,0.4-1,0.6-1.6,0.6c-1.5,0-2.5-1.2-2.5-2.6v0c0-1.4,1-2.6,2.5-2.6s2.5,1.2,2.5,2.6
			v0c0,0.7-0.2,1.3-0.7,1.8l0.7,0.6L67.1-404.4z M66.1-405.3l-1-0.8l0.3-0.3l1,0.9c0.3-0.4,0.5-0.9,0.5-1.5v0c0-1.2-0.9-2.3-2.1-2.3
			c-1.2,0-2.1,1-2.1,2.2v0c0,1.2,0.9,2.3,2.1,2.3C65.3-404.8,65.8-405,66.1-405.3z"/>
		<path class="st1" d="M71.5-406.6v-2.9h0.4v2.9c0,1.2,0.6,1.9,1.7,1.9c1,0,1.7-0.6,1.7-1.8v-2.9h0.4v2.9c0,1.4-0.8,2.2-2.1,2.2
			C72.3-404.5,71.5-405.2,71.5-406.6z"/>
		<path class="st1" d="M80.1-409.6h0.4v5h-0.4V-409.6z"/>
		<path class="st1" d="M86.4-409.2h-1.8v-0.3h3.9v0.3h-1.7v4.7h-0.4V-409.2z"/>
		<path class="st1" d="M92.6-409.6h3.6v0.3H93v2h2.9v0.3H93v2h3.2v0.3h-3.6V-409.6z"/>
		<path class="st1" d="M101.8-409.2h-1.8v-0.3h3.9v0.3h-1.7v4.7h-0.4V-409.2z"/>
		<path class="st1" d="M108-406.6v-2.9h0.4v2.9c0,1.2,0.6,1.9,1.7,1.9c1,0,1.7-0.6,1.7-1.8v-2.9h0.4v2.9c0,1.4-0.8,2.2-2.1,2.2
			C108.9-404.5,108-405.2,108-406.6z"/>
		<path class="st1" d="M116.5-409.6h2.1c0.6,0,1.1,0.2,1.4,0.5c0.2,0.2,0.4,0.6,0.4,0.9v0c0,0.8-0.6,1.3-1.5,1.4l1.7,2.1h-0.5
			l-1.6-2.1h-1.6v2.1h-0.4V-409.6z M118.6-407c0.8,0,1.5-0.4,1.5-1.1v0c0-0.7-0.5-1.1-1.4-1.1h-1.7v2.3H118.6z"/>
		<path class="st1" d="M126.6-409.6h0.4l2.3,5.1h-0.4l-0.6-1.4h-3l-0.6,1.4h-0.4L126.6-409.6z M128.1-406.3l-1.3-2.9l-1.3,2.9H128.1
			z"/>
		<path class="st1" d="M138.5-409.6h1.7c1.6,0,2.7,1.1,2.7,2.5v0c0,1.4-1.1,2.5-2.7,2.5h-1.7V-409.6z M138.9-409.2v4.3h1.3
			c1.4,0,2.3-1,2.3-2.2v0c0-1.2-0.9-2.2-2.3-2.2H138.9z"/>
		<path class="st1" d="M147.1-409.6h3.6v0.3h-3.2v2h2.9v0.3h-2.9v2h3.2v0.3h-3.6V-409.6z"/>
		<path class="st1" d="M160.1-409.6h0.4v5h-0.4V-409.6z"/>
		<path class="st1" d="M165-409.6h0.4l3.5,4.4v-4.4h0.4v5h-0.3l-3.5-4.5v4.5H165V-409.6z"/>
		<path class="st1" d="M175.1-409.2h-1.8v-0.3h3.9v0.3h-1.8v4.7h-0.4V-409.2z"/>
		<path class="st1" d="M181.3-409.6h3.6v0.3h-3.2v2h2.9v0.3h-2.9v2h3.2v0.3h-3.6V-409.6z"/>
		<path class="st1" d="M189.2-409.6h2.1c0.6,0,1.1,0.2,1.4,0.5c0.2,0.2,0.4,0.6,0.4,0.9v0c0,0.8-0.6,1.3-1.5,1.4l1.7,2.1h-0.5
			l-1.6-2.1h-1.6v2.1h-0.4V-409.6z M191.2-407c0.8,0,1.5-0.4,1.5-1.1v0c0-0.7-0.5-1.1-1.4-1.1h-1.7v2.3H191.2z"/>
		<path class="st1" d="M197.4-409.6h0.4v5h-0.4V-409.6z"/>
		<path class="st1" d="M202.1-407.1L202.1-407.1c0-1.4,1-2.6,2.5-2.6s2.5,1.2,2.5,2.6v0c0,1.4-1,2.6-2.5,2.6
			S202.1-405.7,202.1-407.1z M206.7-407.1L206.7-407.1c0-1.3-0.9-2.3-2.1-2.3s-2.1,1-2.1,2.2v0c0,1.2,0.9,2.3,2.1,2.3
			C205.8-404.8,206.7-405.8,206.7-407.1z"/>
		<path class="st1" d="M211.4-409.6h2.1c0.6,0,1.1,0.2,1.4,0.5c0.2,0.2,0.4,0.6,0.4,0.9v0c0,0.8-0.6,1.3-1.5,1.4l1.7,2.1H215
			l-1.6-2.1h-1.6v2.1h-0.4V-409.6z M213.5-407c0.8,0,1.5-0.4,1.5-1.1v0c0-0.7-0.5-1.1-1.4-1.1h-1.7v2.3H213.5z"/>
		<path class="st1" d="M219.6-409.6h3.6v0.3h-3.2v2h2.9v0.3h-2.9v2h3.2v0.3h-3.6V-409.6z"/>
		<path class="st1" d="M227.1-405.3l0.2-0.3c0.6,0.5,1.1,0.7,1.8,0.7c0.8,0,1.3-0.4,1.3-1v0c0-0.5-0.3-0.8-1.4-1.1
			c-1.2-0.2-1.7-0.7-1.7-1.4v0c0-0.7,0.7-1.3,1.6-1.3c0.7,0,1.2,0.2,1.7,0.6l-0.2,0.3c-0.5-0.4-0.9-0.6-1.5-0.6
			c-0.7,0-1.2,0.4-1.2,0.9v0c0,0.5,0.3,0.9,1.5,1.1c1.2,0.2,1.6,0.7,1.6,1.4v0c0,0.8-0.7,1.4-1.7,1.4
			C228.3-404.5,227.7-404.8,227.1-405.3z"/>
	</g>
</g>
</svg>
