<svg xmlns="http://www.w3.org/2000/svg" viewBox="0 0 89.37 35.25"><defs><style>.cls-1{fill:#2f283a;}</style></defs><title>Asset 1</title><g id="Layer_2" data-name="Layer 2"><g id="Layer_1-2" data-name="Layer 1"><path class="cls-1" d="M10.37,35.21,0,35.25V11.79H1.21l9.1,9.1,9.1-9.1h1.21V35.21l-1.21,0V13.49l-9.1,9.1-9.1-9.1V34h9.16Z"/><path class="cls-1" d="M26.62,11.79h1.22V35.25H26.62Z"/><path class="cls-1" d="M33.83,35.25V0h1.22V35.25Zm15,0L36.34,22.88,47.5,11.79h1.74L38.08,22.88,50.54,35.25Z"/><rect class="cls-1" x="53.82" width="1.21" height="35.25"/><polygon class="cls-1" points="79.67 35.25 89.37 35.25 79.26 11.39 69.55 34.29 58.06 22.88 69.22 11.79 67.48 11.79 56.32 22.88 68.78 35.25 69.15 35.25 70.44 35.25 70.52 35.25 70.47 35.2 79.26 14.51 87.55 34.04 79.67 34.04 79.67 35.25"/></g></g></svg>