<?xml version="1.0" encoding="utf-8"?>
<!-- Generator: Adobe Illustrator 23.1.1, SVG Export Plug-In . SVG Version: 6.00 Build 0)  -->
<svg version="1.1" id="Layer_1" xmlns="http://www.w3.org/2000/svg" xmlns:xlink="http://www.w3.org/1999/xlink" x="0px" y="0px"
	 viewBox="0 0 248 46" style="enable-background:new 0 0 248 46;" xml:space="preserve">
<style type="text/css">
	.st0{enable-background:new    ;}
	.st1{fill:#3A4A53;}
	.st2{fill:#5E6A71;}
</style>
<g class="st0">
	<path class="st1" d="M3.3,26.4C3.1,26.2,3,25.9,3,25.5L3,4.1c0-0.3,0.1-0.6,0.3-0.9C3.6,3.1,3.9,3,4.2,3l6.1,0c1.5,0,2.8,0.3,4,1
		c1.2,0.7,2.1,1.6,2.7,2.7c0.6,1.2,1,2.5,1,4c0,1.5-0.3,2.8-1,4c-0.7,1.2-1.6,2.1-2.7,2.7c-1.2,0.6-2.5,1-4,1l-4.9,0l0,7.2
		c0,0.3-0.1,0.6-0.3,0.9c-0.2,0.2-0.5,0.3-0.9,0.3C3.8,26.7,3.5,26.6,3.3,26.4z M10.3,16.1c1,0,2-0.2,2.8-0.7
		c0.8-0.5,1.4-1.1,1.9-1.9c0.5-0.8,0.7-1.7,0.7-2.8c0-1.1-0.2-2-0.7-2.8c-0.5-0.8-1.1-1.5-1.9-1.9c-0.8-0.5-1.7-0.7-2.8-0.7l-4.9,0
		l0,10.8L10.3,16.1z"/>
</g>
<g class="st0">
	<path class="st1" d="M38.4,25.6c0,0.3-0.1,0.6-0.4,0.8c-0.2,0.2-0.5,0.3-0.8,0.3c-0.5,0-0.9-0.2-1.1-0.7l-2-4.9l-11.8,0l-2,4.9
		c-0.2,0.5-0.5,0.7-1.1,0.7c-0.3,0-0.6-0.1-0.8-0.4c-0.2-0.2-0.3-0.5-0.3-0.8c0-0.2,0-0.4,0.1-0.5l9-21.2C27.2,3.3,27.6,3,28.2,3
		s0.9,0.3,1.1,0.8l8.9,21.3C38.3,25.3,38.4,25.4,38.4,25.6z M23.1,19.1l10.1,0l-5-12.2L23.1,19.1z"/>
</g>
<g class="st0">
	<path class="st1" d="M45.8,26.2c-1.4-0.7-2.6-1.7-3.4-3c-0.8-1.3-1.2-2.7-1.2-4.3l0-14.7c0-0.3,0.1-0.6,0.3-0.9S42.1,3,42.4,3
		c0.3,0,0.6,0.1,0.9,0.3s0.3,0.5,0.3,0.9l0,14.7c0,1.2,0.3,2.2,0.9,3.2c0.6,0.9,1.4,1.6,2.5,2.2c1.1,0.5,2.3,0.8,3.7,0.8
		c1.4,0,2.6-0.3,3.6-0.8c1.1-0.5,1.9-1.2,2.5-2.2c0.6-0.9,0.9-2,0.9-3.1l0-14.7c0-0.3,0.1-0.6,0.3-0.9C58.3,3.2,58.5,3,58.9,3
		c0.3,0,0.6,0.1,0.9,0.3c0.2,0.2,0.3,0.5,0.3,0.9L60,19c0,1.6-0.4,3-1.2,4.3c-0.8,1.3-1.9,2.3-3.3,3c-1.4,0.7-3,1.1-4.8,1.1
		C48.8,27.3,47.2,26.9,45.8,26.2z"/>
</g>
<g class="st0">
	<path class="st1" d="M64.9,26.5c-0.2-0.2-0.3-0.5-0.3-0.8l0-21.4c0-0.3,0.1-0.6,0.4-0.8c0.2-0.2,0.5-0.3,0.8-0.3
		c0.3,0,0.6,0.1,0.9,0.3C66.9,3.6,67,3.9,67,4.2l0,20.3l11.9,0c0.3,0,0.6,0.1,0.9,0.3c0.2,0.2,0.3,0.5,0.3,0.8
		c0,0.3-0.1,0.6-0.3,0.8c-0.2,0.2-0.5,0.3-0.9,0.3l-13.1,0C65.5,26.8,65.2,26.7,64.9,26.5z"/>
</g>
<g class="st0">
	<path class="st1" d="M103,25.7c0,0.3-0.1,0.6-0.4,0.8c-0.2,0.2-0.5,0.3-0.8,0.3c-0.5,0-0.9-0.2-1.1-0.7l-2-4.9l-11.8,0l-2,4.9
		c-0.2,0.5-0.5,0.7-1.1,0.7c-0.3,0-0.6-0.1-0.8-0.4c-0.2-0.2-0.3-0.5-0.3-0.8c0-0.2,0-0.4,0.1-0.5l9-21.2c0.2-0.5,0.6-0.8,1.2-0.8
		s0.9,0.3,1.1,0.8l8.9,21.3C103,25.4,103,25.5,103,25.7z M87.8,19.2l10.1,0L92.8,7L87.8,19.2z"/>
</g>
<g class="st0">
	<path class="st1" d="M133.3,3.5c0.2,0.2,0.3,0.5,0.3,0.8c0,0.2-0.1,0.4-0.2,0.7l-9.1,21.3c-0.2,0.5-0.6,0.8-1.1,0.8
		c-0.3,0-0.5-0.1-0.7-0.2c-0.2-0.1-0.3-0.3-0.4-0.6l-9-21.2c-0.1-0.3-0.2-0.6-0.2-0.8c0-0.3,0.1-0.6,0.3-0.8
		c0.2-0.2,0.5-0.3,0.8-0.3c0.5,0,0.9,0.3,1.1,0.8l8,19.3L131.3,4c0.1-0.3,0.3-0.5,0.5-0.6c0.2-0.1,0.4-0.2,0.7-0.2
		C132.9,3.2,133.1,3.3,133.3,3.5z"/>
</g>
<g class="st0">
	<path class="st1" d="M136.9,26.6c-0.2-0.2-0.3-0.5-0.3-0.8l0-21.4c0-0.3,0.1-0.6,0.4-0.9c0.2-0.2,0.5-0.3,0.8-0.3l14.3,0
		c0.3,0,0.6,0.1,0.9,0.3c0.2,0.2,0.3,0.5,0.3,0.8s-0.1,0.6-0.3,0.8c-0.2,0.2-0.5,0.3-0.9,0.3l-13.1,0l0,8.4l9.5,0
		c0.3,0,0.6,0.1,0.9,0.3c0.2,0.2,0.3,0.5,0.3,0.8c0,0.3-0.1,0.6-0.4,0.8c-0.2,0.2-0.5,0.3-0.8,0.3l-9.5,0l0,8.5l13.1,0
		c0.3,0,0.6,0.1,0.9,0.3c0.2,0.2,0.3,0.5,0.3,0.8c0,0.3-0.1,0.6-0.3,0.8c-0.2,0.2-0.5,0.3-0.9,0.3l-14.3,0
		C137.4,27,137.2,26.8,136.9,26.6z"/>
</g>
<g class="st0">
	<path class="st1" d="M172.5,26c0,0.3-0.1,0.5-0.3,0.7c-0.2,0.2-0.5,0.3-0.9,0.3c-0.2,0-0.4-0.1-0.6-0.2c-0.2-0.1-0.3-0.3-0.4-0.5
		l-5.5-8.7l-0.5,0l-4.5,0l0,8.1c0,0.3-0.1,0.6-0.3,0.9c-0.2,0.2-0.5,0.3-0.9,0.3c-0.3,0-0.6-0.1-0.9-0.3c-0.2-0.2-0.3-0.5-0.3-0.9
		l0-21.4c0-0.3,0.1-0.6,0.3-0.9c0.2-0.2,0.5-0.3,0.9-0.3l5.7,0c1.5,0,2.8,0.3,4,0.9c1.2,0.6,2.1,1.5,2.7,2.6c0.7,1.1,1,2.4,1,3.8
		c0,1.6-0.4,2.9-1.3,4.1c-0.8,1.2-2,2-3.4,2.5l5,8C172.4,25.5,172.5,25.8,172.5,26z M164.2,15.4c1,0,1.9-0.2,2.8-0.6
		c0.8-0.4,1.5-1,1.9-1.7c0.5-0.7,0.7-1.6,0.7-2.5c0-1-0.2-1.8-0.7-2.6c-0.5-0.8-1.1-1.4-1.9-1.8s-1.7-0.6-2.8-0.6l-4.5,0l0,9.9
		L164.2,15.4z"/>
</g>
<g class="st0">
	<path class="st1" d="M195.6,25.9c0,0.3-0.1,0.6-0.4,0.8c-0.2,0.2-0.5,0.3-0.8,0.3c-0.5,0-0.9-0.2-1.1-0.7l-2-4.9l-11.8,0l-2,4.9
		c-0.2,0.5-0.5,0.7-1.1,0.7c-0.3,0-0.6-0.1-0.8-0.4s-0.3-0.5-0.3-0.8c0-0.2,0-0.4,0.1-0.5l9-21.2c0.2-0.5,0.6-0.8,1.2-0.8
		c0.5,0,0.9,0.3,1.1,0.8l8.9,21.3C195.6,25.5,195.6,25.7,195.6,25.9z M180.4,19.3l10.1,0l-5-12.2L180.4,19.3z"/>
</g>
<g class="st0">
	<path class="st1" d="M199.4,26.7c-0.2-0.2-0.3-0.5-0.3-0.9l0-21.4c0-0.3,0.1-0.6,0.3-0.9c0.2-0.2,0.5-0.3,0.9-0.3
		c0.4,0,0.7,0.1,0.9,0.4l14.5,19.1l0-18.4c0-0.3,0.1-0.6,0.4-0.9c0.2-0.2,0.5-0.3,0.8-0.3c0.3,0,0.6,0.1,0.9,0.3
		c0.2,0.2,0.3,0.5,0.3,0.9l0,21.4c0,0.3-0.1,0.6-0.3,0.8c-0.2,0.2-0.5,0.3-0.9,0.3c-0.4,0-0.7-0.1-0.9-0.4L201.5,7.6l0,18.3
		c0,0.3-0.1,0.6-0.3,0.8c-0.2,0.2-0.5,0.3-0.9,0.3C199.9,27.1,199.6,26.9,199.4,26.7z"/>
</g>
<g class="st0">
	<path class="st1" d="M227.7,25.8c-1.8-1.1-3.3-2.5-4.3-4.4c-1-1.9-1.6-3.9-1.6-6.3s0.5-4.4,1.6-6.2c1-1.8,2.5-3.3,4.3-4.3
		c1.8-1.1,3.9-1.6,6.2-1.6c2.3,0,4.4,0.5,6.2,1.6c1.9,1.1,3.3,2.5,4.3,4.4c1,1.8,1.6,3.9,1.6,6.2c0,2.3-0.5,4.4-1.6,6.3
		c-1,1.9-2.5,3.3-4.4,4.4c-1.9,1.1-3.9,1.6-6.2,1.6C231.6,27.4,229.5,26.9,227.7,25.8z M239,23.9c1.5-0.9,2.7-2.1,3.5-3.6
		c0.9-1.5,1.3-3.2,1.3-5.1c0-1.8-0.4-3.5-1.3-5c-0.8-1.5-2-2.7-3.5-3.6c-1.5-0.9-3.2-1.3-5-1.3c-1.9,0-3.5,0.4-5,1.3
		c-1.5,0.9-2.7,2.1-3.5,3.6c-0.9,1.5-1.3,3.2-1.3,5c0,1.9,0.4,3.6,1.3,5.1c0.8,1.5,2,2.7,3.5,3.6c1.5,0.9,3.2,1.3,5,1.3
		C235.8,25.2,237.5,24.7,239,23.9z"/>
</g>
<g class="st0">
	<path class="st2" d="M5,37.6l0.4,0l2.9,6.3l-0.5,0L7,42.1l-3.7,0l-0.8,1.7l-0.5,0L5,37.6z M6.9,41.7l-1.6-3.6l-1.6,3.6L6.9,41.7z"
		/>
	<path class="st2" d="M13.8,37.6l2.6,0c0.8,0,1.4,0.2,1.7,0.6c0.3,0.3,0.5,0.7,0.5,1.2v0c0,1-0.8,1.6-1.8,1.8l2,2.7l-0.6,0l-2-2.6
		l-2,0l0,2.6h-0.5L13.8,37.6z M16.4,40.9c1,0,1.8-0.5,1.8-1.4v0c0-0.8-0.7-1.4-1.8-1.4l-2.1,0l0,2.8L16.4,40.9z"/>
	<path class="st2" d="M30.1,44.1l-0.9-0.8c-0.5,0.4-1.2,0.7-2,0.7c-1.9,0-3.1-1.5-3.1-3.2v0c0-1.7,1.3-3.2,3.1-3.2s3.1,1.5,3.1,3.2
		v0c0,0.8-0.3,1.6-0.8,2.2l0.9,0.7L30.1,44.1z M28.9,43l-1.2-1l0.3-0.4l1.2,1.1c0.4-0.5,0.7-1.2,0.7-1.9v0c0-1.5-1.1-2.8-2.7-2.8
		c-1.5,0-2.6,1.2-2.6,2.8v0c0,1.5,1.1,2.8,2.7,2.8C27.9,43.6,28.4,43.4,28.9,43z"/>
	<path class="st2" d="M36,41.3l0-3.6l0.5,0l0,3.6c0,1.5,0.8,2.3,2.1,2.3c1.3,0,2.1-0.8,2.1-2.3l0-3.6l0.5,0l0,3.6
		c0,1.8-1,2.7-2.6,2.7C37,44,36,43.1,36,41.3z"/>
	<path class="st2" d="M47.1,37.7h0.5l0,6.2H47L47.1,37.7z"/>
	<path class="st2" d="M55.3,38.1l-2.2,0l0-0.4l4.8,0l0,0.4l-2.2,0l0,5.8l-0.5,0L55.3,38.1z"/>
	<path class="st2" d="M63.5,37.7l4.4,0l0,0.4l-4,0l0,2.4l3.6,0l0,0.4l-3.6,0l0,2.5l4,0l0,0.4l-4.5,0L63.5,37.7z"/>
	<path class="st2" d="M75.3,38.2l-2.2,0l0-0.4l4.8,0l0,0.4l-2.2,0l0,5.8l-0.5,0L75.3,38.2z"/>
	<path class="st2" d="M83.4,41.4l0-3.6l0.5,0l0,3.6c0,1.5,0.8,2.3,2.1,2.3c1.3,0,2.1-0.8,2.1-2.3l0-3.6l0.5,0l0,3.6
		c0,1.8-1,2.7-2.6,2.7C84.4,44.1,83.4,43.1,83.4,41.4z"/>
	<path class="st2" d="M94.4,37.8l2.6,0c0.8,0,1.4,0.2,1.7,0.6c0.3,0.3,0.5,0.7,0.5,1.2v0c0,1-0.8,1.6-1.8,1.8l2,2.7l-0.6,0l-2-2.6
		l-2,0l0,2.6l-0.5,0L94.4,37.8z M96.9,41c1,0,1.8-0.5,1.8-1.4v0c0-0.8-0.7-1.4-1.8-1.4l-2.1,0l0,2.8L96.9,41z"/>
	<path class="st2" d="M107.3,37.8l0.4,0l2.9,6.3l-0.5,0l-0.8-1.7l-3.7,0l-0.8,1.7l-0.5,0L107.3,37.8z M109.2,41.9l-1.6-3.6l-1.6,3.6
		L109.2,41.9z"/>
	<path class="st2" d="M123,37.8l2.1,0c2,0,3.3,1.3,3.3,3.1v0c0,1.8-1.4,3.1-3.3,3.1l-2.1,0L123,37.8z M123.4,38.3l0,5.4l1.6,0
		c1.7,0,2.8-1.2,2.8-2.7v0c0-1.5-1.1-2.7-2.8-2.7L123.4,38.3z"/>
	<path class="st2" d="M134.1,37.9l4.4,0l0,0.4l-4,0l0,2.4l3.6,0l0,0.4l-3.6,0l0,2.5l4,0v0.4l-4.5,0L134.1,37.9z"/>
	<path class="st2" d="M151,37.9l0.5,0l0,6.2l-0.5,0L151,37.9z"/>
	<path class="st2" d="M157.6,37.9h0.4l4.3,5.4l0-5.4l0.4,0l0,6.2l-0.3,0l-4.4-5.5l0,5.5l-0.4,0L157.6,37.9z"/>
	<path class="st2" d="M170.5,38.3l-2.2,0l0-0.4l4.8,0v0.4l-2.2,0l0,5.8l-0.5,0L170.5,38.3z"/>
	<path class="st2" d="M178.6,37.9l4.4,0l0,0.4l-4,0l0,2.4l3.6,0l0,0.4l-3.6,0l0,2.5l4,0l0,0.4l-4.5,0L178.6,37.9z"/>
	<path class="st2" d="M188.7,37.9l2.6,0c0.8,0,1.4,0.2,1.7,0.6c0.3,0.3,0.5,0.7,0.5,1.2v0c0,1-0.8,1.6-1.8,1.8l2,2.7l-0.6,0l-2-2.6
		l-2,0l0,2.6l-0.5,0L188.7,37.9z M191.3,41.2c1,0,1.8-0.5,1.8-1.4v0c0-0.8-0.7-1.4-1.8-1.4l-2.1,0l0,2.8L191.3,41.2z"/>
	<path class="st2" d="M199.4,38l0.5,0l0,6.2l-0.5,0L199.4,38z"/>
	<path class="st2" d="M205.6,41.1L205.6,41.1c0-1.7,1.3-3.2,3.1-3.2s3.1,1.5,3.1,3.2v0c0,1.7-1.3,3.2-3.1,3.2S205.6,42.8,205.6,41.1
		z M211.4,41.1L211.4,41.1c0-1.6-1.1-2.8-2.7-2.8c-1.5,0-2.6,1.2-2.6,2.8v0c0,1.5,1.1,2.8,2.7,2.8C210.3,43.9,211.4,42.6,211.4,41.1
		z"/>
	<path class="st2" d="M217.6,38l2.6,0c0.8,0,1.4,0.2,1.8,0.6c0.3,0.3,0.5,0.7,0.5,1.2v0c0,1-0.8,1.6-1.8,1.8l2,2.7l-0.6,0l-2-2.6
		l-2,0l0,2.6h-0.5L217.6,38z M220.2,41.2c1,0,1.8-0.5,1.8-1.4v0c0-0.8-0.7-1.4-1.8-1.4l-2.1,0l0,2.8L220.2,41.2z"/>
	<path class="st2" d="M228.2,38l4.4,0v0.4l-4,0l0,2.4l3.6,0v0.4l-3.6,0l0,2.5l4,0v0.4l-4.5,0L228.2,38z"/>
	<path class="st2" d="M237.9,43.3l0.3-0.3c0.7,0.6,1.3,0.9,2.2,0.9c0.9,0,1.6-0.5,1.6-1.2v0c0-0.7-0.3-1-1.8-1.3
		c-1.5-0.3-2.1-0.8-2.1-1.8v0c0-0.9,0.8-1.6,2-1.6c0.9,0,1.5,0.3,2.1,0.8l-0.3,0.4c-0.6-0.5-1.2-0.7-1.9-0.7c-0.9,0-1.5,0.5-1.5,1.2
		v0c0,0.7,0.3,1.1,1.8,1.4c1.4,0.3,2,0.8,2,1.7v0c0,1-0.9,1.7-2.1,1.7C239.4,44.3,238.6,44,237.9,43.3z"/>
</g>
</svg>
